<svg version="1.1" xmlns="http://www.w3.org/2000/svg" xmlns:xlink="http://www.w3.org/1999/xlink" width="48" height="48"><defs><linearGradient x1="9.88672" y1="5.26179" x2="78.79829" y2="83.42327" gradientUnits="userSpaceOnUse" id="color-1"><stop offset="0" stop-color="#000000" stop-opacity="0.3"></stop><stop offset="1" stop-color="#000000" stop-opacity="0"></stop></linearGradient><filter id="dropshadow-base"><feColorMatrix type="matrix" values="0 0 0 0 0  0 0 0 0 0  0 0 0 0 0  0 0 0 .8 0"></feColorMatrix> <feOffset dx="0" dy="1"></feOffset> <feGaussianBlur stdDeviation="1"></feGaussianBlur> <feComposite in="SourceGraphic"></feComposite></filter><filter id="dropshadow-banner" x="-10%" y="-10%" width="120%" height="130%"><feColorMatrix type="matrix" values="0 0 0 0 0  0 0 0 0 0  0 0 0 0 0  0 0 0 .4 0"></feColorMatrix> <feOffset dx="0" dy="1"></feOffset> <feGaussianBlur stdDeviation="0.5"></feGaussianBlur> <feComposite in="SourceGraphic"></feComposite></filter></defs><g fill="none" fill-rule="none" stroke="none" stroke-width="none" stroke-linecap="butt" stroke-linejoin="miter" stroke-miterlimit="10" stroke-dasharray="" stroke-dashoffset="0" font-family="none" font-weight="none" font-size="none" text-anchor="none" style="mix-blend-mode: normal"><path d="M2,24c0,-12.15026 9.84974,-22 22,-22c12.15026,0 22,9.84974 22,22c0,12.15026 -9.84974,22 -22,22c-12.15026,0 -22,-9.84974 -22,-22z" id="base 1 5" fill="#484848" fill-rule="nonzero" stroke-width="1"></path><path d="M26.45851,42.73823l0.00002,-0.00002l1.77561,-2.6635l-4.23414,-4.23414l-7.05664,-9.40886l2.3522,0l-2.3522,-2.3522v-2.35222h2.35222l-2.35222,-2.35222l4.70442,-7.05664l2.35227,0l-6.05837,-6.05837c0.59745,-0.20323 1.20808,-0.37728 1.83094,-0.52124l0,0l0.00002,0l1.87518,1.87518l2.35221,-2.35221l2.35222,2.35222l1.87519,-1.87519c0.62286,0.14396 1.2335,0.31801 1.83096,0.52124l15.86264,15.86264c0.05229,0.61883 0.07897,1.24495 0.07897,1.8773c0,10.3871 -7.19849,19.0929 -16.8789,21.40082zM12.23892,28.78393l16.66704,16.66704c-1.57755,0.35929 -3.2196,0.54903 -4.90596,0.54903c-1.83951,0 -3.62629,-0.22577 -5.33414,-0.6511l-7.75172,-7.75172c0.00001,0.00001 0.00001,0.00001 0.00002,0.00002l-1.02745,-4.10884l4.70442,4.70442z" fill="url(#color-1)" fill-rule="nonzero" stroke-width="1"></path><path d="M26.45853,42.7382l9.30253,-13.95427l-2.35221,9.40885l4.70443,-4.70443l-1.02745,4.10885c-2.83206,2.74268 -6.52222,4.60375 -10.6273,5.141zM10.91417,37.5972l-1.02745,-4.10885l4.70443,4.70443l-2.35221,-9.40885l9.30253,13.95427c-4.10508,-0.53725 -7.79523,-2.39832 -10.6273,-5.141zM16.94336,26.43172h14.11328l-7.05664,9.40885zM16.94336,21.72729h14.11328v2.35221h-14.11328zM26.35221,12.31844l4.70443,7.05664h-14.11328l4.70443,-7.05664zM19.7726,5.73883l1.87518,1.87518l2.35221,-2.35221l2.35221,2.35221l1.87518,-1.87518c0.62287,0.14396 1.2335,0.31802 1.83096,0.52125l-3.70615,3.70615h-4.70443l-3.70615,-3.70615c0.59746,-0.20323 1.2081,-0.37729 1.83096,-0.52125z" fill="none" fill-rule="evenodd" stroke-width="0"></path><path d="M26.45853,42.7382l9.30253,-13.95427l-2.35221,9.40885l4.70443,-4.70443l-1.02745,4.10885c-2.83206,2.74268 -6.52222,4.60375 -10.6273,5.141zM10.91417,37.5972l-1.02745,-4.10885l4.70443,4.70443l-2.35221,-9.40885l9.30253,13.95427c-4.10508,-0.53725 -7.79523,-2.39832 -10.6273,-5.141zM16.94336,26.43172h14.11328l-7.05664,9.40885zM16.94336,21.72729h14.11328v2.35221h-14.11328zM26.35221,12.31844l4.70443,7.05664h-14.11328l4.70443,-7.05664zM19.7726,5.73883l1.87518,1.87518l2.35221,-2.35221l2.35221,2.35221l1.87518,-1.87518c0.62287,0.14396 1.2335,0.31802 1.83096,0.52125l-3.70615,3.70615h-4.70443l-3.70615,-3.70615c0.59746,-0.20323 1.2081,-0.37729 1.83096,-0.52125z" fill="#ffffff" fill-rule="evenodd" stroke-width="0"></path><path d="M2,24c0,-12.15026 9.84974,-22 22,-22c12.15026,0 22,9.84974 22,22c0,12.15026 -9.84974,22 -22,22c-12.15026,0 -22,-9.84974 -22,-22z" id="base 1 1 1" fill="none" fill-rule="nonzero" stroke-width="1"></path><g fill="#000000" fill-rule="nonzero" stroke-width="1" font-family="Roboto, sans-serif" font-weight="400" font-size="14" text-anchor="start"><g></g></g><rect x="2" y="2" width="44" height="22" fill="none" fill-rule="nonzero" stroke-width="1"></rect><path d="M2,24v-22h44v22z" fill="none" fill-rule="nonzero" stroke-width="1"></path><path d="M2,24v-22h44v22z" fill="none" fill-rule="nonzero" stroke-width="1"></path><path d="M2,24v-22h44v22z" fill="none" fill-rule="nonzero" stroke-width="1"></path><path d="M2,24v-22h44v22z" fill="none" fill-rule="nonzero" stroke-width="1"></path></g></svg>