<svg xmlns="http://www.w3.org/2000/svg" style="isolation:isolate" width="24" height="24"><defs><clipPath id="a"><path d="M0 0h24v24H0z"/></clipPath></defs><g clip-path="url(#a)"><path d="M14 2a2 2 0 1 1-4 0 2 2 0 0 1 4 0z" fill-opacity=".33"/><path d="M9.7 4.3L12 2l2.3 2.3a9 9 0 1 1-4.6 0z" fill-rule="evenodd" fill="#F44336"/><path d="M6.26 17H7l3.18-3.18a2 2 0 0 1 1-2.65L9 9H8V8l1.56-1.56c.46-.17.94-.3 1.44-.37V7l7.77 7.77A6.99 6.99 0 0 1 16.9 18H16v-1h1l-3.18-3.18a2 2 0 0 1-2.64 1L9 17h1v1H7.1a7.1 7.1 0 0 1-.84-1zM11 13a1 1 0 1 1 2 0 1 1 0 0 1-2 0z" fill-rule="evenodd" fill="#FFF"/></g></svg>