<?xml version="1.0" standalone="no"?><!-- Generator: Gravit.io --><svg xmlns="http://www.w3.org/2000/svg" xmlns:xlink="http://www.w3.org/1999/xlink" style="isolation:isolate" viewBox="0 0 24 24" width="24" height="24"><defs><clipPath id="_clipPath_IgHjCm0RfKktCSSToeCIoVc7kVMO7UGv"><rect width="24" height="24"/></clipPath></defs><g clip-path="url(#_clipPath_IgHjCm0RfKktCSSToeCIoVc7kVMO7UGv)"><path d=" M 8 22 C 8 20.896 9.792 20 12 20 C 14.208 20 16 20.896 16 22 C 16 23.104 14.208 24 12 24 C 9.792 24 8 23.104 8 22 Z " fill="rgb(0,0,0)" fill-opacity="0.33"/><path d=" M 4 11 C 4 6.585 7.585 3 12 3 C 16.415 3 20 6.585 20 11 C 20 15.415 16.415 19 12 19 C 7.585 19 4 15.415 4 11 Z " fill="rgb(255,255,255)"/><g style="isolation:isolate" id="mortar"><path d=" M 11 11 C 11 10.448 11.448 10 12 10 C 12.552 10 13 10.448 13 11 C 13 11.552 12.552 12 12 12 C 11.448 12 11 11.552 11 11 L 11 11 Z  M 13.823 11.823 L 17 15 L 16 15 L 16 16 L 18.243 16 C 16.777 17.828 14.524 19 12 19 C 7.585 19 4 15.415 4 11 C 4 6.585 7.585 3 12 3 C 16.415 3 20 6.585 20 11 C 20 11.901 19.851 12.767 19.576 13.576 L 19.576 13.576 L 11 5 L 11 4 L 10 4 L 8 6 L 8 7 L 9 7 L 11.177 9.177 C 10.483 9.491 10 10.189 10 11 L 10 11 C 10 11.293 10.063 11.572 10.177 11.823 L 7 15 L 6 15 L 6 16 L 6 16 L 10 16 L 10 15 L 9 15 L 11.177 12.823 C 11.428 12.937 11.707 13 12 13 C 12.811 13 13.509 12.517 13.823 11.823 Z " fill-rule="evenodd" fill="rgb(0,0,0)"/></g><path d=" M 14.296 19.704 L 12 22 L 9.704 19.704 C 5.847 18.688 3 15.174 3 11 C 3 6.033 7.033 2 12 2 C 16.967 2 21 6.033 21 11 C 21 15.174 18.153 18.688 14.296 19.704 Z  M 5 11 C 5 7.137 8.137 4 12 4 C 15.863 4 19 7.137 19 11 C 19 14.863 15.863 18 12 18 C 8.137 18 5 14.863 5 11 Z " fill-rule="evenodd" fill="rgb(0,0,0)"/></g></svg>