<?xml version="1.0" standalone="no"?><!-- Generator: Gravit.io --><svg xmlns="http://www.w3.org/2000/svg" xmlns:xlink="http://www.w3.org/1999/xlink" style="isolation:isolate" viewBox="0 0 24 24" width="24" height="24"><defs><clipPath id="_clipPath_M5fg82HHCrHnrg9mwTw038DkFUwYubfg"><rect width="24" height="24"/></clipPath></defs><g clip-path="url(#_clipPath_M5fg82HHCrHnrg9mwTw038DkFUwYubfg)"><path d=" M 8 22 C 8 20.896 9.792 20 12 20 C 14.208 20 16 20.896 16 22 C 16 23.104 14.208 24 12 24 C 9.792 24 8 23.104 8 22 Z " fill="rgb(0,0,0)" fill-opacity="0.33"/><path d=" M 4 11 C 4 6.585 7.585 3 12 3 C 16.415 3 20 6.585 20 11 C 20 15.415 16.415 19 12 19 C 7.585 19 4 15.415 4 11 Z " fill="rgb(255,255,255)"/><g style="isolation:isolate" id="target"><path d=" M 6.761 17.044 C 5.07 15.577 4 13.412 4 11 C 4 6.585 7.585 3 12 3 C 16.415 3 20 6.585 20 11 C 20 13.412 18.93 15.577 17.239 17.044 L 18 14 L 16 16 L 17 12 L 13 18 L 15.874 18 C 14.726 18.637 13.405 19 12 19 C 10.595 19 9.274 18.637 8.126 18 L 11 18 L 7 12 L 8 16 L 6 14 L 6.761 17.044 M 12 17 L 15 13 L 9 13 L 12 17 M 6.761 17.044 M 9 12 L 15 12 L 15 11 L 9 11 L 9 12 M 6.761 17.044 M 11 7 L 9 10 L 15 10 L 13 7 L 11 7 M 6.761 17.044 Z  M 11 6 L 9 4 L 10 4 L 11 5 L 12 4 L 13 5 L 14 4 L 15 4 L 13 6 L 11 6 Z " fill-rule="evenodd" fill="rgb(33,150,243)"/></g><path d=" M 14.296 19.704 L 12 22 L 9.704 19.704 C 5.847 18.688 3 15.174 3 11 C 3 6.033 7.033 2 12 2 C 16.967 2 21 6.033 21 11 C 21 15.174 18.153 18.688 14.296 19.704 Z  M 5 11 C 5 7.137 8.137 4 12 4 C 15.863 4 19 7.137 19 11 C 19 14.863 15.863 18 12 18 C 8.137 18 5 14.863 5 11 Z " fill-rule="evenodd" fill="rgb(33,150,243)"/></g></svg>