<svg xmlns="http://www.w3.org/2000/svg" style="isolation:isolate" width="24" height="24"><defs><clipPath id="a"><path d="M0 0h24v24H0z"/></clipPath></defs><g clip-path="url(#a)" fill-rule="evenodd"><path d="M3 12a9 9 0 1 1 18 0 9 9 0 0 1-18 0z" fill="#2196F3"/><path d="M9.47 5.47L11 7h2l1.53-1.53c-.25-.1-.5-.18-.76-.24L13 6l-1-1-1 1-.77-.77c-.26.06-.51.15-.76.24zM11 8l-2 3h6l-2-3h-2zm-2 5h6v-1H9v1zm3 5l3-4H9l3 4zm-1.05.92L7 13l1 4-2-2 .25.99a7 7 0 0 0 4.7 2.93zm6.8-2.93L18 15l-2 2 1-4-3.95 5.92a7 7 0 0 0 4.7-2.93z" fill="#FFF"/></g></svg>