<?xml version="1.0" standalone="no"?><!-- Generator: Gravit.io --><svg xmlns="http://www.w3.org/2000/svg" xmlns:xlink="http://www.w3.org/1999/xlink" style="isolation:isolate" viewBox="0 0 24 24" width="24" height="24"><defs><clipPath id="_clipPath_OQcFVqMWJviwFtMQvP7kaRrXcw3g8acA"><rect width="24" height="24"/></clipPath></defs><g clip-path="url(#_clipPath_OQcFVqMWJviwFtMQvP7kaRrXcw3g8acA)"><rect width="24" height="24" style="fill:rgb(0,0,0)"/><path d=" M 9 13 L 15 13 L 15 12 L 9 12 L 9 13 Z  M 11 5 L 9 3 L 10 3 L 11 4 L 12 3 L 13 4 L 14 3 L 15 3 L 13 5 L 11 5 Z  M 11 6 L 9 11 L 15 11 L 13 6 L 11 6 Z  M 12 18 L 15 14 L 9 14 L 12 18 Z  M 11 21 L 5 13 L 6 17 L 4 15 L 7 21 L 11 21 Z  M 13 21 L 17 21 L 20 15 L 18 17 L 19 13 L 13 21 Z " fill-rule="evenodd" fill="rgb(0,0,0)"/></g></svg>