<?xml version="1.0" standalone="no"?>
<!DOCTYPE svg PUBLIC "-//W3C//DTD SVG 20010904//EN"
 "http://www.w3.org/TR/2001/REC-SVG-20010904/DTD/svg10.dtd">
<svg version="1.0" xmlns="http://www.w3.org/2000/svg"
 width="700.000000pt" height="700.000000pt" viewBox="0 0 700.000000 700.000000"
 preserveAspectRatio="xMidYMid meet">
<metadata>
Created by potrace 1.11, written by Peter Selinger 2001-2013
</metadata>
<g transform="translate(0.000000,700.000000) scale(0.100000,-0.100000)"
fill="#000000" stroke="none">
<path d="M3270 6704 c-19 -2 -82 -9 -140 -15 -753 -80 -1499 -464 -2010 -1034
-454 -506 -716 -1083 -812 -1785 -17 -127 -17 -613 0 -740 58 -424 164 -768
346 -1115 427 -819 1180 -1410 2081 -1633 276 -69 437 -87 765 -87 333 0 489
18 780 90 891 222 1649 821 2073 1643 179 346 281 678 339 1102 17 127 17 613
0 740 -82 601 -283 1101 -623 1555 -519 693 -1278 1137 -2154 1260 -104 15
-563 28 -645 19z m402 -651 l168 -168 137 137 138 137 70 -18 c122 -32 185
-52 185 -59 0 -4 -118 -125 -262 -269 l-263 -263 -345 0 -345 0 -262 262
c-145 145 -263 266 -263 270 0 7 63 27 185 59 l70 18 138 -137 137 -137 168
168 c92 92 169 167 172 167 3 0 80 -75 172 -167z m508 -1363 l340 -510 -1020
0 -1020 0 340 510 340 510 340 0 340 0 340 -510z m350 -1030 l0 -170 -1030 0
-1030 0 0 170 0 170 1030 0 1030 0 0 -170z m-516 -1195 c-279 -371 -510 -675
-514 -675 -4 0 -235 304 -514 675 l-506 675 1020 0 1020 0 -506 -675z m-884
-1689 c0 -6 -210 34 -310 59 -426 109 -858 343 -1166 632 l-62 58 -66 270
c-37 149 -69 279 -72 290 -3 11 148 -133 335 -320 188 -187 341 -336 341 -332
0 4 -74 304 -165 667 -91 363 -165 663 -165 667 0 5 299 -441 665 -989 366
-549 665 -1000 665 -1002z m1905 1325 c-91 -363 -165 -664 -165 -668 0 -4 153
145 341 332 187 187 338 331 335 320 -3 -11 -35 -141 -72 -290 l-66 -270 -62
-58 c-308 -289 -740 -523 -1166 -632 -123 -31 -312 -65 -308 -55 6 16 1323
1988 1326 1985 1 -1 -72 -300 -163 -664z"/>
</g>
</svg>
