<svg xmlns="http://www.w3.org/2000/svg" viewBox="0 0 32 32"><defs><style>.a{fill:lime;}.b{fill:#050;}.c{fill:none;stroke:#000;stroke-miterlimit:10;stroke-width:2px;}</style></defs><title>mortar_remove</title><path class="a" d="M8.81,27.41l-.13-.07-.4-.27L8.14,27,8,26.88H8l-.11-.1a.47.47,0,0,1-.16-.12l-.24-.18-.25-.21a11.67,11.67,0,0,1-.94-.88c-.21-.22-.41-.44-.6-.67l-.28-.35,6.9-6.91s0-.07-.05-.1A4.26,4.26,0,0,1,12,16.28c0-.14,0-.26,0-.38a3.6,3.6,0,0,1,.06-.66,3.91,3.91,0,0,1,1.74-2.63l-.88-.89L9.46,8.29,8.8,9l-2-2L9.6,4.11l.07,0a5.44,5.44,0,0,1,.54-.27c.35-.18.73-.33,1.11-.48.2-.07.39-.14.59-.19l.28-.08,1.25,1.25L12.79,5,24.25,16.42l-1,.12a7.16,7.16,0,0,0-2.43.69c-.22.1-.43.22-.64.34s-.34.21-.49.32l-.35.24L19.16,18a3.28,3.28,0,0,1-.27.38,3.95,3.95,0,0,1-3,1.43,3.62,3.62,0,0,1-1.56-.34L9,24.77h.6v2.64Zm7.07-12.78a1.25,1.25,0,0,0-1.18.85,1,1,0,0,0-.08.42.56.56,0,0,0,0,.19,1.17,1.17,0,0,0,.35.69,1.23,1.23,0,0,0,.89.38,1.26,1.26,0,0,0,.89-.37,1.18,1.18,0,0,0,.34-.64.9.9,0,0,0,0-.25v-.13a1.86,1.86,0,0,0-.07-.28,1.26,1.26,0,0,0-1.1-.85l-.09-.51Z"/><path class="b" d="M12,3.62l.69.69-.39.39L12.08,5,14,6.83l.28.28L23.16,16a7.87,7.87,0,0,0-2.6.74c-.23.11-.45.23-.67.36a6,6,0,0,0-.53.34L19,17.16a3.85,3.85,0,0,1-.54.89,3.39,3.39,0,0,1-2.62,1.25A3.22,3.22,0,0,1,14.43,19l-.21-.1-.1.1-.92.92-.52.52-2.1,2.11-1,1L7.82,25.27H9.13v1.64H8.94l-.39-.26-.1-.07-.17-.13-.06,0A1.25,1.25,0,0,1,8,26.26l-.11-.08-.1-.09h0l-.25-.21A10.41,10.41,0,0,1,6.65,25c-.2-.21-.39-.42-.57-.64l5.74-5.74,1.1-1.1a3.11,3.11,0,0,1-.2-.41,3.46,3.46,0,0,1-.22-.91c0-.11,0-.22,0-.33a3.68,3.68,0,0,1,0-.58,3.42,3.42,0,0,1,2.08-2.58l-1.36-1.37L9.46,7.58l-.66.66L7.49,6.93,9.9,4.52l.52-.26c.35-.17.71-.32,1.08-.46q.27-.1.54-.18m3.84,14a1.75,1.75,0,0,0,1.24-.52,1.62,1.62,0,0,0,.48-.91,1.19,1.19,0,0,0,0-.33v-.13a1.64,1.64,0,0,0-.1-.45A1.76,1.76,0,0,0,16,14.14h-.13a1.74,1.74,0,0,0-1.65,1.19,1.43,1.43,0,0,0-.11.58,1.19,1.19,0,0,0,0,.33,1.62,1.62,0,0,0,.48.91,1.75,1.75,0,0,0,1.24.52M12.33,2.5l-.56.16q-.31.09-.63.21c-.43.16-.81.32-1.16.49l-.55.28-.13.07-.11.1L6.78,6.22l-.7.71.7.71L8.09,9l.71.7L9.46,9l3.08,3.09.48.48a4.42,4.42,0,0,0-1.48,2.59,5.25,5.25,0,0,0-.06.75c0,.14,0,.28,0,.42a4.6,4.6,0,0,0,.23,1l-.62.61L5.37,23.68l-.64.64.58.7a8.94,8.94,0,0,0,.62.7,11.66,11.66,0,0,0,1,.94l.12.1.1.08.28.25h0l.16.12a.47.47,0,0,0,.09.06l.13.1.16.12.42.27.24.15h1.47V24.37l.12-.11,1-1,2.1-2.11.52-.52.53-.54a4.12,4.12,0,0,0,1.44.25,4.24,4.24,0,0,0,1.92-.45,4.33,4.33,0,0,0,1.42-1.1l0,0,.69-.48a3.27,3.27,0,0,1,.44-.29l.61-.33A7,7,0,0,1,23.27,17l2.07-.22-1.47-1.48L14.94,6.4l-.28-.28L13.49,5l.65-.65-.7-.71-.69-.69-.42-.41Zm2.79,13.44v0a.68.68,0,0,1,0-.17l0-.05,0,0a.73.73,0,0,1,.67-.51h.09a.76.76,0,0,1,.66.51l0,.16V16l0,.07v0a.62.62,0,0,1-.18.35.77.77,0,0,1-.55.24.72.72,0,0,1-.53-.23.6.6,0,0,1-.2-.36V16l0-.06Z"/><path class="b" d="M16,0a16,16,0,1,0,4.71,31.29,6.5,6.5,0,0,1-1.23-.7,7.17,7.17,0,0,1-1-.81,6.77,6.77,0,0,1-.8-.89,12.73,12.73,0,0,1-3.34,0h0a11,11,0,0,1-1.73-.35h-.07c-.23-.06-.45-.13-.67-.21l-.29-.1-.69-.28c-.27-.11-.53-.24-.79-.37l0,0c-.25-.13-.5-.28-.75-.43a2.7,2.7,0,0,1-.31-.2h0l-.39-.26-.1-.07-.17-.13-.06,0A1.25,1.25,0,0,1,8,26.26l-.11-.08-.1-.09h0l-.25-.21A10.41,10.41,0,0,1,6.65,25c-.2-.21-.39-.42-.57-.64A13,13,0,0,1,9.9,4.52l.52-.26c.35-.17.71-.32,1.08-.46q.27-.1.54-.18l.31-.09.09,0a8.7,8.7,0,0,1,.88-.22,12,12,0,0,1,1.48-.22Q15.4,3,16,3t1.2.06a12,12,0,0,1,1.48.22,8.7,8.7,0,0,1,.88.22.16.16,0,0,1,.09,0l.13,0,.07,0,.62.2h0a13,13,0,0,1,8.39,13.87,6.77,6.77,0,0,1,.89.8,7.17,7.17,0,0,1,.81,1,6.5,6.5,0,0,1,.7,1.23A16,16,0,0,0,16,0Z"/><path class="a" d="M16,1a15,15,0,0,0,0,30,14.8,14.8,0,0,0,3.48-.41,7.17,7.17,0,0,1-1-.81,6.77,6.77,0,0,1-.8-.89,12.73,12.73,0,0,1-3.34,0h0a11,11,0,0,1-1.73-.35h-.07c-.23-.06-.45-.13-.67-.21l-.29-.1-.69-.28c-.27-.11-.53-.24-.79-.37l0,0c-.25-.13-.5-.28-.75-.43a2.7,2.7,0,0,1-.31-.2h0l-.39-.26-.1-.07-.17-.13-.06,0A1.25,1.25,0,0,1,8,26.26l-.11-.08-.1-.09h0l-.25-.21A10.41,10.41,0,0,1,6.65,25c-.2-.21-.39-.42-.57-.64A13,13,0,0,1,9.9,4.52l.52-.26c.35-.17.71-.32,1.08-.46q.27-.1.54-.18l.31-.09.09,0a8.7,8.7,0,0,1,.88-.22,12,12,0,0,1,1.48-.22Q15.4,3,16,3t1.2.06a12,12,0,0,1,1.48.22,8.7,8.7,0,0,1,.88.22.16.16,0,0,1,.09,0l.13,0,.07,0,.62.2h0a13,13,0,0,1,8.39,13.87,6.77,6.77,0,0,1,.89.8,7.17,7.17,0,0,1,.81,1A14.8,14.8,0,0,0,31,16,15,15,0,0,0,16,1Z"/><path class="b" d="M16,2a14,14,0,0,0,0,28,13.43,13.43,0,0,0,2.47-.22,6.77,6.77,0,0,1-.8-.89,12.73,12.73,0,0,1-3.34,0h0a11,11,0,0,1-1.73-.35h-.07c-.23-.06-.45-.13-.67-.21l-.29-.1-.69-.28c-.27-.11-.53-.24-.79-.37l0,0c-.25-.13-.5-.28-.75-.43a2.7,2.7,0,0,1-.31-.2h0l-.39-.26-.1-.07-.17-.13-.06,0A1.25,1.25,0,0,1,8,26.26l-.11-.08-.1-.09h0l-.25-.21A10.41,10.41,0,0,1,6.65,25c-.2-.21-.39-.42-.57-.64A13,13,0,0,1,9.9,4.52l.52-.26c.35-.17.71-.32,1.08-.46q.27-.1.54-.18l.31-.09.09,0a8.7,8.7,0,0,1,.88-.22,12,12,0,0,1,1.48-.22Q15.4,3,16,3t1.2.06a12,12,0,0,1,1.48.22,8.7,8.7,0,0,1,.88.22.16.16,0,0,1,.09,0l.13,0,.07,0,.62.2h0a13,13,0,0,1,8.39,13.87,6.77,6.77,0,0,1,.89.8A13.43,13.43,0,0,0,30,16,14,14,0,0,0,16,2Z"/><line class="c" x1="27" y1="21" x2="21" y2="27"/><line class="c" x1="27" y1="27" x2="21" y2="21"/><path d="M24,18a6,6,0,1,1-6,6,6,6,0,0,1,6-6m0-2a8,8,0,1,0,8,8,8,8,0,0,0-8-8Z"/></svg>