<svg id="Layer_1" data-name="Layer 1" xmlns="http://www.w3.org/2000/svg" viewBox="0 0 32 32"><defs><style>.cls-1{fill:lime;}.cls-2{fill:#050;}</style></defs><title>mortar</title><path class="cls-1" d="M8.79,27.41l-.12-.08a12.77,12.77,0,0,1-3-2.62l-.3-.35,6.91-6.91A3.75,3.75,0,0,1,12,15.9a4,4,0,0,1,1.8-3.29L9.46,8.29,8.8,9l-2-2L9.6,4.11l.07,0a13.53,13.53,0,0,1,2.22-.94l.29-.09,1.26,1.26L12.79,5,28.62,20.8l-.13.31a13.4,13.4,0,0,1-2,3.41l-.2.25h.05l-.86.85a2.09,2.09,0,0,1-.31.29l-.8.61V24.77h1.58L19.17,18a3.9,3.9,0,0,1-3.29,1.8,3.83,3.83,0,0,1-1.56-.33L9,24.77h.6v2.64Zm7.09-12.78a1.27,1.27,0,1,0,1.26,1.27v-.13A1.26,1.26,0,0,0,16,14.64l-.1-.51Z"/><path class="cls-2" d="M12,3.62l.69.69L12.08,5l16,16a13.11,13.11,0,0,1-2,3.29l-7-7a3.42,3.42,0,0,1-3.16,2.14,3.37,3.37,0,0,1-1.66-.44l-6.4,6.41H9.13v1.64H8.94a12.51,12.51,0,0,1-2.86-2.52l6.84-6.84a3.31,3.31,0,0,1-.44-1.65,3.42,3.42,0,0,1,2.13-3.16L9.46,7.58l-.66.66L7.49,6.93,9.9,4.52A12.58,12.58,0,0,1,12,3.62m3.84,14a1.76,1.76,0,0,0,1.76-1.76v-.13A1.77,1.77,0,0,0,16,14.14h-.13a1.77,1.77,0,0,0,0,3.53m9.23,7.61a3,3,0,0,1-.26.24v-.24h.26M12.32,2.49l-.58.18a12.93,12.93,0,0,0-2.31,1l-.13.07-.11.1L6.78,6.22l-.7.71.7.71L8.09,9l.71.7L9.46,9,13,12.56a4.44,4.44,0,0,0-1.54,3.34,4.34,4.34,0,0,0,.24,1.43L5.37,23.68l-.64.65.58.7A13.54,13.54,0,0,0,8.4,27.75l.25.16h1.48V24.37l4.31-4.32a4.16,4.16,0,0,0,1.44.25,4.39,4.39,0,0,0,3.34-1.54l5.51,5.51h-.88v3.28l1.61-1.25c.13-.1.25-.22.36-.32l.3-.31,0,0,.29-.35,1.07-1.08h-.23a14,14,0,0,0,1.67-3l.25-.62-.47-.47L13.49,5l.65-.65-.7-.71-.69-.69-.43-.42Zm3.56,14.17a.76.76,0,0,1-.76-.76.77.77,0,0,1,.73-.77h.09a.76.76,0,0,1,.7.68v.08a.76.76,0,0,1-.76.76Z"/><path class="cls-2" d="M16,0A16,16,0,1,0,32,16,16,16,0,0,0,16,0Zm0,29A13,13,0,1,1,29,16,13,13,0,0,1,16,29Z"/><path class="cls-1" d="M16,1A15,15,0,1,0,31,16,15,15,0,0,0,16,1Zm0,28A13,13,0,1,1,29,16,13,13,0,0,1,16,29Z"/><path class="cls-2" d="M16,2A14,14,0,1,0,30,16,14,14,0,0,0,16,2Zm0,27A13,13,0,1,1,29,16,13,13,0,0,1,16,29Z"/></svg>