<svg id="Layer_1" data-name="Layer 1" xmlns="http://www.w3.org/2000/svg" viewBox="0 0 32 32"><defs><style>.cls-1{fill:#050;}.cls-2{fill:lime;}.cls-3{fill:none;stroke:#000;stroke-miterlimit:10;stroke-width:2px;}</style></defs><title>target_remove</title><path class="cls-1" d="M15.66,23.89l-3.32-3.13-.67-.61-.26-1.07-.08-.32-.39-1.56v-1l.25-1,2.26-5.69V6.62l-2.82-3,.69-.27c.2-.07.39-.14.59-.19l.24-.08,0,0h.11a7.13,7.13,0,0,1,.91-.23l.26,0L14,3.2l.7-.7h2.7l.7.7.47-.46.26,0c.29.06.57.13.85.21h.08l.11.06a.64.64,0,0,1,.18.06c.17,0,.34.1.52.16h1.13l-3.1,3.32V9.51l2.24,5.62.27,1v.92l-.28.14c-.22.1-.43.22-.64.34s-.34.21-.49.32a5.67,5.67,0,0,0-.66.53,6.38,6.38,0,0,0-.81.85,9.61,9.61,0,0,0-.62.87,7.42,7.42,0,0,0-1,3.4l0,.28-.24.14-.32.17Z"/><path class="cls-1" d="M17.14,3l.91.91.63-.63a8.7,8.7,0,0,1,.88.22.16.16,0,0,1,.09,0l.13,0,.07,0,.62.2h0L18.05,6.42V9.61l.88,2.2,1.4,3.51.23.91v.55c-.23.11-.45.23-.67.36a6,6,0,0,0-.53.34,8,8,0,0,0-.71.57,7.41,7.41,0,0,0-.86.91,8.47,8.47,0,0,0-.65.92A7.86,7.86,0,0,0,16,23.51h0L12.68,20.4l-.56-.52L11.89,19l-.07-.31-.15-.6-.23-.91v-.91l.23-.91,1.58-4L14,9.61V6.42L12.34,4.7l-.84-.9q.27-.1.54-.18l.31-.09.09,0a8.7,8.7,0,0,1,.88-.22l.63.63L14.86,3h2.28m.41-1h-3.1l-.3.29L14,2.5l-.3-.31-.53.11c-.32.06-.62.14-.9.22a.76.76,0,0,0-.2.06l-.28.09a4.69,4.69,0,0,0-.6.2L9.76,3.4l1,1.08.84.9L13,6.81V9.42L12.32,11,10.74,15l0,.06,0,.06-.23.91,0,.13v1.15l0,.13.23.91.15.59.06.29.24.94.07.29.22.2.56.52,3.31,3.13.51.48.63-.32.55-.27,0-.63a6.87,6.87,0,0,1,1-3.13,7.5,7.5,0,0,1,.56-.79,7.17,7.17,0,0,1,.76-.81c.18-.16.39-.33.62-.5a4.35,4.35,0,0,1,.44-.28l.61-.33.57-.27v-1.3l0-.13-.23-.91,0-.06,0-.06-1.4-3.51-.81-2V6.81l2.18-2.33L22.8,2.8H20.64l-.42-.13,0,0-.09,0-.1,0-.21-.07c-.28-.08-.58-.16-.9-.22l-.53-.11-.3.31-.2-.21L17.55,2Z"/><path class="cls-2" d="M14.27,29.39a13.48,13.48,0,0,1-6.78-2.91L5.56,24.9l3.18.94.79-6.1,5.75,9.77Z"/><path class="cls-1" d="M9.84,21.25l4.49,7.64a12.88,12.88,0,0,1-6.52-2.8l1.35.4.68-5.24m-.62-3-.37,2.89L8.32,25.2l-.23-.07L3.31,23.71l3.87,3.16a13.87,13.87,0,0,0,7,3l2,.26-1-1.76L10.7,20.74,9.22,18.23Z"/><path class="cls-2" d="M17.14,19.88A7.86,7.86,0,0,0,16,23.51h0L12.68,20.4l-.56-.52Z"/><path class="cls-2" d="M18.65,18.05a7.41,7.41,0,0,0-.86.91h-5.9l-.07-.31-.15-.6Z"/><path class="cls-2" d="M20.56,16.23v.55c-.23.11-.45.23-.67.36H11.44v-.91Z"/><polygon class="cls-2" points="16 9.61 13.95 9.61 11.67 15.32 16 15.32 20.33 15.32 18.05 9.61 16 9.61"/><polygon class="cls-2" points="16 7.11 13.95 7.11 13.95 8.7 16 8.7 18.05 8.7 18.05 7.11 16 7.11"/><path class="cls-2" d="M20.5,3.8,18.05,6.42H14L11.5,3.8a12.62,12.62,0,0,1,1.82-.52l.63.63L14.86,3h2.28l.91.91.63-.63A12.62,12.62,0,0,1,20.5,3.8Z"/><path class="cls-1" d="M16,0a16,16,0,1,0,4.71,31.29,6.5,6.5,0,0,1-1.23-.7,7.17,7.17,0,0,1-1-.81,6.77,6.77,0,0,1-.8-.89,12.73,12.73,0,0,1-3.34,0h0a11,11,0,0,1-1.73-.35h-.07c-.23-.06-.45-.13-.67-.21l-.29-.1-.69-.28c-.27-.11-.53-.24-.79-.37l0,0c-.25-.13-.5-.28-.75-.43a2.7,2.7,0,0,1-.31-.2h0l-.39-.26-.1-.07-.17-.13-.06,0A1.25,1.25,0,0,1,8,26.26l-.11-.08-.1-.09h0l-.25-.21A10.41,10.41,0,0,1,6.65,25c-.2-.21-.39-.42-.57-.64A13,13,0,0,1,9.9,4.52l.52-.26c.35-.17.71-.32,1.08-.46q.27-.1.54-.18l.31-.09.09,0a8.7,8.7,0,0,1,.88-.22,12,12,0,0,1,1.48-.22Q15.4,3,16,3t1.2.06a12,12,0,0,1,1.48.22,8.7,8.7,0,0,1,.88.22.16.16,0,0,1,.09,0l.13,0,.07,0,.62.2h0a13,13,0,0,1,8.39,13.87,6.77,6.77,0,0,1,.89.8,7.17,7.17,0,0,1,.81,1,6.5,6.5,0,0,1,.7,1.23A16,16,0,0,0,16,0Z"/><path class="cls-2" d="M16,1a15,15,0,0,0,0,30,14.8,14.8,0,0,0,3.48-.41,7.17,7.17,0,0,1-1-.81,6.77,6.77,0,0,1-.8-.89,12.73,12.73,0,0,1-3.34,0h0a11,11,0,0,1-1.73-.35h-.07c-.23-.06-.45-.13-.67-.21l-.29-.1-.69-.28c-.27-.11-.53-.24-.79-.37l0,0c-.25-.13-.5-.28-.75-.43a2.7,2.7,0,0,1-.31-.2h0l-.39-.26-.1-.07-.17-.13-.06,0A1.25,1.25,0,0,1,8,26.26l-.11-.08-.1-.09h0l-.25-.21A10.41,10.41,0,0,1,6.65,25c-.2-.21-.39-.42-.57-.64A13,13,0,0,1,9.9,4.52l.52-.26c.35-.17.71-.32,1.08-.46q.27-.1.54-.18l.31-.09.09,0a8.7,8.7,0,0,1,.88-.22,12,12,0,0,1,1.48-.22Q15.4,3,16,3t1.2.06a12,12,0,0,1,1.48.22,8.7,8.7,0,0,1,.88.22.16.16,0,0,1,.09,0l.13,0,.07,0,.62.2h0a13,13,0,0,1,8.39,13.87,6.77,6.77,0,0,1,.89.8,7.17,7.17,0,0,1,.81,1A14.8,14.8,0,0,0,31,16,15,15,0,0,0,16,1Z"/><path class="cls-1" d="M16,2a14,14,0,0,0,0,28,13.43,13.43,0,0,0,2.47-.22,6.77,6.77,0,0,1-.8-.89,12.73,12.73,0,0,1-3.34,0h0a11,11,0,0,1-1.73-.35h-.07c-.23-.06-.45-.13-.67-.21l-.29-.1-.69-.28c-.27-.11-.53-.24-.79-.37l0,0c-.25-.13-.5-.28-.75-.43a2.7,2.7,0,0,1-.31-.2h0l-.39-.26-.1-.07-.17-.13-.06,0A1.25,1.25,0,0,1,8,26.26l-.11-.08-.1-.09h0l-.25-.21A10.41,10.41,0,0,1,6.65,25c-.2-.21-.39-.42-.57-.64A13,13,0,0,1,9.9,4.52l.52-.26c.35-.17.71-.32,1.08-.46q.27-.1.54-.18l.31-.09.09,0a8.7,8.7,0,0,1,.88-.22,12,12,0,0,1,1.48-.22Q15.4,3,16,3t1.2.06a12,12,0,0,1,1.48.22,8.7,8.7,0,0,1,.88.22.16.16,0,0,1,.09,0l.13,0,.07,0,.62.2h0a13,13,0,0,1,8.39,13.87,6.77,6.77,0,0,1,.89.8A13.43,13.43,0,0,0,30,16,14,14,0,0,0,16,2Z"/><line class="cls-3" x1="27" y1="21" x2="21" y2="27"/><line class="cls-3" x1="27" y1="27" x2="21" y2="21"/><path d="M24,18a6,6,0,1,1-6,6,6,6,0,0,1,6-6m0-2a8,8,0,1,0,8,8,8,8,0,0,0-8-8Z"/></svg>