<svg id="Layer_1" data-name="Layer 1" xmlns="http://www.w3.org/2000/svg" viewBox="0 0 32 32"><defs><style>.cls-1{fill:#050;}.cls-2{fill:lime;}</style></defs><title>target</title><path class="cls-1" d="M11.67,20.14l-.26-1.06-.23-.91-.24-1v-1l.25-1,2.26-5.69V6.62l-2.83-3,.71-.26a12.68,12.68,0,0,1,1.89-.54l.26-.06L14,3.2l.7-.7h2.7l.7.7.47-.47.26.06a12.68,12.68,0,0,1,1.89.54l.71.26-2.83,3V9.51l2.24,5.62.27,1v1l-.25,1-.21.91-.27,1.06L16,24.22Z"/><path class="cls-1" d="M17.14,3l.91.91.63-.63a12.62,12.62,0,0,1,1.82.52L18.05,6.42V9.61l2.28,5.71.23.91v.91l-.23.91-.22.91-.23.92L16,23.53l-3.88-3.65L11.89,19l-.22-.91-.23-.91v-.91l.23-.91L14,9.61V6.42L11.5,3.8a12.62,12.62,0,0,1,1.82-.52l.63.63L14.86,3h2.28m.41-1h-3.1l-.3.29L14,2.5l-.31-.31-.53.11a15.52,15.52,0,0,0-2,.56l-1.41.53,1,1.09L13,6.81V9.42L10.74,15l0,.06,0,.06-.23.91,0,.13v1.15l0,.13.23.91.22.89.23.93.07.29.21.2,3.88,3.65.69.64.69-.64,3.88-3.65.21-.2.07-.29.23-.92.22-.91.23-.9,0-.13V16.11l0-.13-.23-.91,0-.06,0-.06L19.05,9.42V6.81l2.18-2.33,1-1.09-1.41-.53a15.52,15.52,0,0,0-2-.56l-.53-.11-.31.31-.2-.21L17.55,2Z"/><path class="cls-2" d="M22.47,19.74l.79,6.1,3.18-.94-1.93,1.58a13.48,13.48,0,0,1-6.78,2.91l-1,.12Z"/><path class="cls-1" d="M22.16,21.25l.68,5.24,1.35-.4a12.88,12.88,0,0,1-6.52,2.8l4.49-7.64m.62-3L21.3,20.74l-4.49,7.64-1,1.76,2-.26a13.87,13.87,0,0,0,7-3l3.87-3.16-4.78,1.42-.23.07-.53-4.08-.37-2.89Z"/><path class="cls-2" d="M14.27,29.39a13.48,13.48,0,0,1-6.78-2.91L5.56,24.9l3.18.94.79-6.1,5.75,9.77Z"/><path class="cls-1" d="M9.84,21.25l4.49,7.64a12.88,12.88,0,0,1-6.52-2.8l1.35.4.68-5.24m-.62-3-.37,2.89L8.32,25.2l-.23-.07L3.31,23.71l3.87,3.16a13.87,13.87,0,0,0,7,3l2,.26-1-1.76L10.7,20.74,9.22,18.23Z"/><polygon class="cls-2" points="16 19.88 12.12 19.88 16 23.53 19.88 19.88 16 19.88"/><polygon class="cls-2" points="16 18.05 11.67 18.05 11.89 18.96 16 18.96 20.11 18.96 20.33 18.05 16 18.05"/><polygon class="cls-2" points="16 16.23 11.44 16.23 11.44 17.14 16 17.14 20.56 17.14 20.56 16.23 16 16.23"/><polygon class="cls-2" points="16 9.61 13.95 9.61 11.67 15.32 16 15.32 20.33 15.32 18.05 9.61 16 9.61"/><polygon class="cls-2" points="16 7.11 13.95 7.11 13.95 8.7 16 8.7 18.05 8.7 18.05 7.11 16 7.11"/><path class="cls-2" d="M20.5,3.8,18.05,6.42H14L11.5,3.8a12.62,12.62,0,0,1,1.82-.52l.63.63L14.86,3h2.28l.91.91.63-.63A12.62,12.62,0,0,1,20.5,3.8Z"/><path class="cls-1" d="M16,0A16,16,0,1,0,32,16,16,16,0,0,0,16,0Zm0,29A13,13,0,1,1,29,16,13,13,0,0,1,16,29Z"/><path class="cls-2" d="M16,1A15,15,0,1,0,31,16,15,15,0,0,0,16,1Zm0,28A13,13,0,1,1,29,16,13,13,0,0,1,16,29Z"/><path class="cls-1" d="M16,2A14,14,0,1,0,30,16,14,14,0,0,0,16,2Zm0,27A13,13,0,1,1,29,16,13,13,0,0,1,16,29Z"/></svg>