<svg xmlns="http://www.w3.org/2000/svg" style="isolation:isolate" width="24" height="24"><defs><clipPath id="a"><path d="M0 0h24v24H0z"/></clipPath></defs><g clip-path="url(#a)" fill-rule="evenodd"><path d="M3 12a9 9 0 1 1 18 0 9 9 0 0 1-18 0z" fill="#F44336"/><path d="M6.26 16H7l3.18-3.18a2 2 0 0 1 1-2.65L9 8H8V7l1.56-1.56c.46-.17.94-.3 1.44-.37V6l7.77 7.77A6.99 6.99 0 0 1 16.9 17H16v-1h1l-3.18-3.18a2 2 0 0 1-2.64 1L9 16h1v1H7.1a7.1 7.1 0 0 1-.84-1zM11 12a1 1 0 1 1 2 0 1 1 0 0 1-2 0z" fill="#FFF"/></g></svg>