<svg xmlns="http://www.w3.org/2000/svg" style="isolation:isolate" width="24" height="24"><defs><clipPath id="a"><path d="M0 0h24v24H0z"/></clipPath></defs><g clip-path="url(#a)"><path d="M14 2a2 2 0 1 1-4 0 2 2 0 0 1 4 0z" fill-opacity=".33"/><path d="M9.7 4.3L12 2l2.3 2.3a9 9 0 1 1-4.6 0z" fill-rule="evenodd" fill="#F44336"/><path d="M9.47 6.47L11 8h2l1.53-1.53c-.25-.1-.5-.18-.76-.24L13 7l-1-1-1 1-.77-.77c-.26.06-.51.15-.76.24zM11 9l-2 3h6l-2-3h-2zm-2 5h6v-1H9v1zm3 5l3-4H9l3 4zm-1.05.92L7 14l1 4-2-2 .25.99a7 7 0 0 0 4.7 2.93zm6.8-2.93L18 16l-2 2 1-4-3.95 5.92a7 7 0 0 0 4.7-2.93z" fill-rule="evenodd" fill="#FFF"/></g></svg>